<svg id="Layer_1" data-name="Layer 1" xmlns="http://www.w3.org/2000/svg" viewBox="0 0 45.53 46.21"><defs><style>.cls-1{fill:#c12126;}</style></defs><path class="cls-1" d="M186.06,204c0-2.14,0-4.14,0-6.14,0-.16.35-.36.58-.45a24.79,24.79,0,0,0,3.21-1.24A7.94,7.94,0,0,0,194,189c0-2.06,0-4.11,0-6.17a8.7,8.7,0,0,0-6.4-8.38,8.86,8.86,0,0,0-11.29,8c-.12,2.41,0,4.83,0,7.24,0,3.34,2.85,6.86,6.77,7.69,1.11.24,1.11.24,1.11,1.35V204c-1.07-.16-2-.26-3-.46a19.12,19.12,0,0,1-14.35-23.56c2.39-8.53,10.7-14.64,19.07-14.23a18,18,0,0,1,14.22,7.83c4.58,6.41,5.31,13.35,1.69,20.44-2.83,5.56-7.59,8.7-13.73,9.74C187.51,203.84,186.85,203.88,186.06,204Z" transform="translate(-162.4 -161.55)"/><path class="cls-1" d="M184.26,195.61a6.56,6.56,0,0,1-6.21-6.18c-.05-1.36,0-2.72,0-4.08,0-.56.2-.71.72-.7,1.94,0,1.6-.17,1.62,1.57,0,1.31,0,2.63,0,3.94,0,.71.39.68.88.7s.78-.14.77-.73q0-3.12,0-6.25A3,3,0,0,1,184,181a3.09,3.09,0,0,1,3.38.59,2.76,2.76,0,0,1,1,2.17c0,2.11,0,4.22,0,6.32,0,.64.14.91.85.92s.88-.27.87-.91c0-1.77,0-3.54,0-5.44a18,18,0,0,1,1.82,0c.16,0,.4.31.41.48,0,1.6.11,3.2,0,4.78a6.82,6.82,0,0,1-5.9,5.75,1.09,1.09,0,0,1-.32-.06V184.7c0-.82-.57-1.28-1.22-.9a1.46,1.46,0,0,0-.51,1.06c0,3.1,0,6.22,0,9.33Z" transform="translate(-162.4 -161.55)"/><path class="cls-1" d="M162.4,184.58c0-.51,0-1,0-1.54a1,1,0,0,1,2.09-.07c.09,1.13.09,2.26.18,3.38a21.13,21.13,0,0,0,16.58,18.87,19.91,19.91,0,0,0,11.22-.9c1.1-.4,1.64-.27,1.89.43s-.12,1.25-1.16,1.6c-7.71,2.6-14.93,1.65-21.47-3.24C165.58,198.51,162.7,192.17,162.4,184.58Z" transform="translate(-162.4 -161.55)"/><path class="cls-1" d="M207.91,184.81v1a1,1,0,0,1-1,1.11,1,1,0,0,1-1.09-1c-.09-.9-.06-1.8-.18-2.69q-1.66-12.9-13.63-18c-.31-.13-.62-.25-.92-.41a1,1,0,0,1,.84-1.91,32.6,32.6,0,0,1,3.84,1.77,23.56,23.56,0,0,1,11.32,14.66c.49,1.8.51,3.71.82,5.55Z" transform="translate(-162.4 -161.55)"/><path class="cls-1" d="M178.07,183a6.31,6.31,0,0,1,1.56-4.49,6.92,6.92,0,0,1,7-2.49,6.79,6.79,0,0,1,5.4,4.82,2.66,2.66,0,0,1,.1.38c.32,1.7.27,1.74-1.46,1.73a.77.77,0,0,1-.88-.62,4.87,4.87,0,0,0-8.13-1.82,5.66,5.66,0,0,0-1,1.84c-.17.48-.39.67-.87.65S178.66,183,178.07,183Z" transform="translate(-162.4 -161.55)"/><path class="cls-1" d="M200.54,201.77a1.49,1.49,0,0,1-1.43,1.34,1.29,1.29,0,0,1-1.18-1.28,1.32,1.32,0,0,1,1.34-1.29A1.17,1.17,0,0,1,200.54,201.77Z" transform="translate(-162.4 -161.55)"/><path class="cls-1" d="M204.08,194.77a1.31,1.31,0,0,1,.06,2.62,1.22,1.22,0,0,1-1.24-1.27A1.28,1.28,0,0,1,204.08,194.77Z" transform="translate(-162.4 -161.55)"/><path class="cls-1" d="M178,165.27a1.23,1.23,0,1,1-.05-2.46,1.28,1.28,0,0,1,1.24,1.3A1.19,1.19,0,0,1,178,165.27Z" transform="translate(-162.4 -161.55)"/><path class="cls-1" d="M186.13,162.83a1.19,1.19,0,0,1-1.19,1.23,1.21,1.21,0,0,1-1.22-1.21,1.27,1.27,0,0,1,1.15-1.3A1.3,1.3,0,0,1,186.13,162.83Z" transform="translate(-162.4 -161.55)"/><path class="cls-1" d="M167.46,173.43a1.11,1.11,0,0,1-1.17,1.15,1.23,1.23,0,0,1-1.2-1.24,1.33,1.33,0,0,1,1.23-1.32A1.36,1.36,0,0,1,167.46,173.43Z" transform="translate(-162.4 -161.55)"/><path class="cls-1" d="M172.42,167.73a1.22,1.22,0,0,1-1.24,1.19,1.1,1.1,0,0,1-1.09-1.14,1.21,1.21,0,0,1,1.18-1.25A1.24,1.24,0,0,1,172.42,167.73Z" transform="translate(-162.4 -161.55)"/><text x="-162.4" y="-161.55"/></svg>